<svg width="236" height="131" viewBox="0 0 236 131" fill="none" xmlns="http://www.w3.org/2000/svg">
<path d="M117.619 0.92215L140.528 28.7051L190.244 13.2801L177.595 42.8088L235.129 45.6335L191.754 65.629L235.129 85.6246L177.595 88.4493L190.244 117.978L140.528 102.553L117.619 130.336L94.7098 102.553L44.9931 117.978L57.6423 88.4493L0.107971 85.6246L43.4838 65.629L0.107971 45.6335L57.6423 42.8088L44.9931 13.2801L94.7098 28.7051L117.619 0.92215Z" fill="#FFFF00"/>
<path d="M49.3366 77.8838L58.5466 77.8838C64.0966 77.8838 66.5566 75.6338 66.5566 71.6138C66.5566 69.0338 65.4466 67.5638 63.4366 66.8138C65.1766 65.9738 66.0766 64.4438 66.0766 61.9538C66.0766 58.3238 63.5566 56.3738 57.6766 56.3738L49.3366 56.3738L49.3366 77.8838ZM54.7066 60.6938L57.9166 60.6938C59.9266 60.6938 60.7366 61.2938 60.7366 62.6738C60.7366 64.0838 59.8066 64.7738 57.9166 64.7738L54.7066 64.7738L54.7066 60.6938ZM54.7066 68.9438L57.6466 68.9438C60.1366 68.9438 61.0066 69.6338 61.0066 71.0738C61.0066 72.4838 60.2266 73.2338 57.6166 73.2338L54.7066 73.2338L54.7066 68.9438Z" fill="black"/>
<path d="M77.0147 78.3338C82.4747 78.3338 85.5647 75.3638 85.5647 68.6138L85.5647 56.3738L79.8347 56.3738L79.8347 68.4038C79.8347 71.8238 79.1447 73.0238 77.0147 73.0238C75.0047 73.0238 74.1347 71.7338 74.1347 68.4038L74.1347 56.3738L68.4047 56.3738L68.4047 68.6138C68.4047 75.3638 71.1347 78.3338 77.0147 78.3338Z" fill="black"/>
<path d="M93.3672 77.8838L99.0672 77.8838L99.0672 69.6038L105.967 56.3738L100.177 56.3738L96.2772 64.1138L92.5572 56.3738L86.7372 56.3738L93.3672 69.5138L93.3672 77.8838Z" fill="black"/>
<path d="M121.058 64.9838L129.068 77.8838L134.078 77.8838L134.078 56.3738L128.948 56.3738L128.948 69.0638L121.088 56.3738L115.928 56.3738L115.928 77.8838L121.058 77.8838L121.058 64.9838Z" fill="black"/>
<path d="M145.927 78.3338C149.677 78.3338 152.527 76.9238 154.087 73.9538C154.837 72.4538 155.257 70.6238 155.257 68.3438L155.257 66.0338C155.257 61.5038 153.577 58.5638 150.757 57.0638C149.347 56.3438 147.757 55.9538 145.957 55.9538C142.207 55.9538 139.387 57.4538 137.827 60.4238C137.017 61.9538 136.657 63.7838 136.657 66.0338L136.657 68.3438C136.657 75.2138 140.017 78.3338 145.927 78.3338ZM145.957 73.3838C143.437 73.3838 142.387 71.5838 142.387 68.0438L142.387 66.2738C142.387 62.7038 143.437 60.8738 145.957 60.8738C148.447 60.8738 149.527 62.6138 149.527 66.3038L149.527 68.0438C149.527 71.6738 148.447 73.3838 145.957 73.3838Z" fill="black"/>
<path d="M170.193 65.4938L174.033 77.8838L179.193 77.8838L185.043 56.3738L179.673 56.3738L176.343 69.7838L172.503 56.3738L168.243 56.3738L164.163 69.4538L161.343 56.3738L155.913 56.3738L161.013 77.8838L166.053 77.8838L170.193 65.4938Z" fill="black"/>
</svg>
